<svg version="1.2" xmlns="http://www.w3.org/2000/svg" viewBox="0 0 32 32" width="32" height="32">
	<title>react-svgrepo-com-svg</title>
	<style>.s0 { fill: #53c1de }</style>
	<path class="s0" d="m16 18.6c-1.5 0-2.7-1.2-2.7-2.6 0-1.5 1.2-2.6 2.7-2.6 1.5 0 2.7 1.1 2.7 2.6 0 1.4-1.2 2.6-2.7 2.6z"/>
	<path fill-rule="evenodd" class="s0" d="m31 16c0 2.8-4 4.2-6.2 4.9 0.5 2.2 1.2 6.3-1.3 7.7-2.5 1.4-5.7-1.2-7.4-2.8-1.8 1.6-5.1 4.2-7.6 2.8-2.5-1.4-1.8-5.4-1.2-7.7-2.3-0.6-6.3-2.1-6.3-4.9 0-2.8 4-4.2 6.3-4.9-0.6-2.2-1.3-6.3 1.2-7.7 2.5-1.4 5.8 1.3 7.5 2.9 1.7-1.6 5-4.3 7.5-2.9 2.5 1.4 1.8 5.5 1.2 7.8 2.3 0.6 6.3 2 6.3 4.8zm-1.3 0c0-2.1-3.7-3.2-5.3-3.6q-0.6 1.7-1.5 3.6 0.9 1.9 1.5 3.7c1.8-0.5 5.3-1.6 5.3-3.7zm-6.2 5.2q-1.9 0.4-4 0.6-1.3 1.7-2.6 3.1c1.3 1.2 4.1 3.7 6 2.6 1.8-1 1-4.7 0.6-6.3zm-8.3 3.7q-1.4-1.4-2.6-3.1-2.2-0.2-4.1-0.6c-0.4 1.7-1.2 5.3 0.6 6.3 1.9 1.1 5-1.6 6.1-2.6zm-7.6-5.2q0.6-1.8 1.5-3.7-0.9-1.9-1.4-3.7c-1.8 0.5-5.4 1.6-5.4 3.7 0 2.1 3.7 3.3 5.3 3.7zm1-8.9q1.8-0.4 4-0.6 1.2-1.7 2.5-3c-1.2-1.2-4.1-3.7-6-2.7-1.9 1.1-1 4.5-0.5 6.3zm13.6 3.7q0.5-1.3 0.9-2.5-1.3-0.2-2.7-0.4 0.9 1.4 1.8 2.9zm-8-4.4q1.8-0.1 3.6 0-0.9-1.1-1.8-2.1-0.9 1-1.8 2.1zm-2.6 1.5q-1.4 0.1-2.7 0.4 0.4 1.3 1 2.5 0.8-1.5 1.7-2.9zm-1.7 5.9q-0.6 1.3-1 2.5 1.3 0.3 2.8 0.5-1-1.5-1.8-3zm7.9 4.4q-1.8 0.1-3.6 0 0.9 1.1 1.8 2.1 0.9-1 1.8-2.1zm2.6-1.5q1.5-0.1 2.8-0.4-0.4-1.2-1-2.6-0.9 1.6-1.8 3zm1.1-4.4q-1.2-2.4-2.8-4.6-2.7-0.2-5.4 0-1.6 2.2-2.8 4.6 1.2 2.4 2.8 4.6 2.7 0.2 5.4 0 1.6-2.2 2.8-4.6zm-4.6-8.8q1.3 1.3 2.5 3 2.2 0.2 4.1 0.6c0.4-1.6 1.2-5.3-0.7-6.3-1.8-1.1-4.6 1.5-5.9 2.7z"/>
</svg>
